<?xml version="1.0" encoding="UTF-8" standalone="no"?>
<svg
   xmlns:dc="http://purl.org/dc/elements/1.1/"
   xmlns:cc="http://creativecommons.org/ns#"
   xmlns:rdf="http://www.w3.org/1999/02/22-rdf-syntax-ns#"
   xmlns:svg="http://www.w3.org/2000/svg"
   xmlns="http://www.w3.org/2000/svg"
   xmlns:xlink="http://www.w3.org/1999/xlink"
   xmlns:sodipodi="http://sodipodi.sourceforge.net/DTD/sodipodi-0.dtd"
   xmlns:inkscape="http://www.inkscape.org/namespaces/inkscape"
   enable-background="new 0 0 32 32"
   height="32"
   id="Layer_1"
   version="1.1"
   viewBox="0 0 22 32"
   width="22"
   xml:space="preserve"
   sodipodi:docname="lightbulb.svg"
   inkscape:version="0.92.1 r"><metadata
     id="metadata4677"><rdf:RDF><cc:Work
         rdf:about=""><dc:format>image/svg+xml</dc:format><dc:type
           rdf:resource="http://purl.org/dc/dcmitype/StillImage" /><dc:title></dc:title></cc:Work></rdf:RDF></metadata><defs
     id="defs4675"><linearGradient
       id="linearGradient5263"
       inkscape:collect="always"><stop
         id="stop5259"
         offset="0"
         style="stop-color:#ffffff;stop-opacity:1" /><stop
         id="stop5261"
         offset="1"
         style="stop-color:#ffffff;stop-opacity:0.12935324" /></linearGradient><linearGradient
       inkscape:collect="always"
       id="linearGradient5245"><stop
         style="stop-color:#f4f4f4;stop-opacity:1;"
         offset="0"
         id="stop5241" /><stop
         style="stop-color:#f4f4f4;stop-opacity:0;"
         offset="1"
         id="stop5243" /></linearGradient><linearGradient
       inkscape:collect="always"
       xlink:href="#linearGradient5263"
       id="linearGradient5255"
       x1="16.254238"
       y1="32"
       x2="10.864408"
       y2="-2.1694915"
       gradientUnits="userSpaceOnUse" /><linearGradient
       inkscape:collect="always"
       xlink:href="#linearGradient5245"
       id="linearGradient5257"
       x1="5.7966104"
       y1="9.3347454"
       x2="16.5"
       y2="8.25"
       gradientUnits="userSpaceOnUse" /></defs><sodipodi:namedview
     pagecolor="#ffffff"
     bordercolor="#666666"
     borderopacity="1"
     objecttolerance="10"
     gridtolerance="10"
     guidetolerance="10"
     inkscape:pageopacity="0"
     inkscape:pageshadow="2"
     inkscape:window-width="1366"
     inkscape:window-height="742"
     id="namedview4673"
     showgrid="false"
     inkscape:zoom="7.375"
     inkscape:cx="5.5762712"
     inkscape:cy="16"
     inkscape:window-x="0"
     inkscape:window-y="26"
     inkscape:window-maximized="1"
     inkscape:current-layer="bulb" /><g
     id="bulb"
     transform="translate(-5)"
     style="stroke:none;stroke-opacity:1;fill:#000000;fill-opacity:1"><path
       d="M 16,0 C 9.924,0 5,4.924 5,11 5,15.031 8.688,19.303 10.031,23.055 12.034,28.65 11.812,32 16,32 20.25,32 19.965,28.666 21.969,23.078 23.316,19.318 27,15 27,11 27,4.924 22.074,0 16,0 Z m 2.592,27.176 -4.958,0.619 c -0.177,-0.512 -0.367,-1.111 -0.598,-1.893 -0.003,-0.01 -0.007,-0.021 -0.009,-0.031 l 6.188,-0.773 c -0.088,0.295 -0.182,0.605 -0.264,0.883 -0.131,0.449 -0.248,0.839 -0.359,1.195 z M 12.736,24.908 C 12.554,24.306 12.349,23.672 12.121,23 h 7.766 c -0.123,0.359 -0.246,0.719 -0.352,1.059 z M 16,30 c -1.013,0 -1.479,-0.117 -1.997,-1.25 l 4.238,-0.531 C 17.627,29.873 17.18,30 16,30 Z m 4.672,-9 H 11.339 C 10.841,19.92 10.243,18.84 9.653,17.783 8.348,15.448 7,13.033 7,11 7,6.037 11.037,2 16,2 c 4.963,0 9,4.037 9,9 0,2.018 -1.35,4.446 -2.656,6.795 -0.584,1.053 -1.178,2.131 -1.672,3.205 z"
       id="path4667"
       inkscape:connector-curvature="0"
       style="fill:url(#linearGradient5255);stroke:none;stroke-opacity:1;fill-opacity:1" /><path
       d="m 16,5 c -3.309,0 -6,2.691 -6,6 0,0.276 0.224,0.5 0.5,0.5 0.276,0 0.5,-0.224 0.5,-0.5 0,-2.757 2.243,-5 5,-5 0.276,0 0.5,-0.224 0.5,-0.5 C 16.5,5.224 16.275,5 16,5 Z"
       id="path4669"
       inkscape:connector-curvature="0"
       style="fill:url(#linearGradient5257);stroke:none;stroke-opacity:1;fill-opacity:1" /></g></svg>