<?xml version="1.0" encoding="UTF-8" standalone="no"?>
<svg
   xmlns:dc="http://purl.org/dc/elements/1.1/"
   xmlns:cc="http://creativecommons.org/ns#"
   xmlns:rdf="http://www.w3.org/1999/02/22-rdf-syntax-ns#"
   xmlns:svg="http://www.w3.org/2000/svg"
   xmlns="http://www.w3.org/2000/svg"
   xmlns:xlink="http://www.w3.org/1999/xlink"
   xmlns:sodipodi="http://sodipodi.sourceforge.net/DTD/sodipodi-0.dtd"
   xmlns:inkscape="http://www.inkscape.org/namespaces/inkscape"
   enable-background="new 0 0 64 64"
   height="49.652"
   id="Layer_1"
   version="1.1"
   viewBox="0 0 49.652 49.652"
   width="49.652"
   xml:space="preserve"
   sodipodi:docname="switch.svg"
   inkscape:version="0.92.1 r"><metadata
     id="metadata4555"><rdf:RDF><cc:Work
         rdf:about=""><dc:format>image/svg+xml</dc:format><dc:type
           rdf:resource="http://purl.org/dc/dcmitype/StillImage" /><dc:title></dc:title></cc:Work></rdf:RDF></metadata><defs
     id="defs4553"><linearGradient
       inkscape:collect="always"
       id="linearGradient4561"><stop
         style="stop-color:#f6f6f6;stop-opacity:1;"
         offset="0"
         id="stop4557" /><stop
         style="stop-color:#ffffff;stop-opacity:0.880597"
         offset="1"
         id="stop4559" /></linearGradient><radialGradient
       inkscape:collect="always"
       xlink:href="#linearGradient4561"
       id="radialGradient4565"
       cx="24.826"
       cy="24.826"
       fx="24.826"
       fy="24.826"
       r="24.826"
       gradientUnits="userSpaceOnUse" /></defs><sodipodi:namedview
     pagecolor="#ffffff"
     bordercolor="#666666"
     borderopacity="1"
     objecttolerance="10"
     gridtolerance="10"
     guidetolerance="10"
     inkscape:pageopacity="0"
     inkscape:pageshadow="2"
     inkscape:window-width="1366"
     inkscape:window-height="742"
     id="namedview4551"
     showgrid="false"
     inkscape:zoom="8.40625"
     inkscape:cx="24.826"
     inkscape:cy="24.944959"
     inkscape:window-x="0"
     inkscape:window-y="26"
     inkscape:window-maximized="1"
     inkscape:current-layer="Layer_1" /><path
     d="M 49.652,24.826 C 49.652,11.137 38.515,0 24.826,0 11.137,0 0,11.137 0,24.826 c 0,13.689 11.137,24.826 24.826,24.826 13.689,0 24.826,-11.137 24.826,-24.826 z M 27.263,24.788 c 0,1.301 -1.054,2.356 -2.356,2.356 -1.301,0 -2.356,-1.055 -2.356,-2.356 V 12.535 c 0,-1.301 1.055,-2.356 2.356,-2.356 1.301,0 2.356,1.054 2.356,2.356 z m 13.594,0.079 c 0,8.839 -7.191,16.03 -16.031,16.03 -8.84,0 -16.031,-7.191 -16.031,-16.03 0,-4.285 1.669,-8.313 4.701,-11.34 0.46,-0.46 1.062,-0.689 1.665,-0.689 0.603,0 1.207,0.23 1.667,0.691 0.92,0.921 0.919,2.412 -0.002,3.332 -2.139,2.138 -3.318,4.981 -3.318,8.006 0,6.24 5.077,11.317 11.318,11.317 6.241,0 11.318,-5.077 11.318,-11.317 0,-3.023 -1.176,-5.865 -3.314,-8.003 -0.92,-0.921 -0.919,-2.412 0.001,-3.333 0.921,-0.921 2.412,-0.919 3.333,10e-4 3.026,3.028 4.693,7.054 4.693,11.335 z"
     id="path4548"
     inkscape:connector-curvature="0"
     style="fill:url(#radialGradient4565);fill-opacity:1" /></svg>