<?xml version="1.0" encoding="UTF-8" standalone="no"?>
<svg
   xmlns:dc="http://purl.org/dc/elements/1.1/"
   xmlns:cc="http://creativecommons.org/ns#"
   xmlns:rdf="http://www.w3.org/1999/02/22-rdf-syntax-ns#"
   xmlns:svg="http://www.w3.org/2000/svg"
   xmlns="http://www.w3.org/2000/svg"
   xmlns:sodipodi="http://sodipodi.sourceforge.net/DTD/sodipodi-0.dtd"
   xmlns:inkscape="http://www.inkscape.org/namespaces/inkscape"
   enable-background="new 0 0 512 512"
   height="502.064"
   id="Layer_1"
   version="1.1"
   viewBox="0 0 185.45799 502.064"
   width="185.45799"
   xml:space="preserve"
   sodipodi:docname="temphumi.svg"
   inkscape:version="0.92.1 r"><metadata
     id="metadata4583"><rdf:RDF><cc:Work
         rdf:about=""><dc:format>image/svg+xml</dc:format><dc:type
           rdf:resource="http://purl.org/dc/dcmitype/StillImage" /><dc:title></dc:title></cc:Work></rdf:RDF></metadata><defs
     id="defs4581" /><sodipodi:namedview
     pagecolor="#ffffff"
     bordercolor="#666666"
     borderopacity="1"
     objecttolerance="10"
     gridtolerance="10"
     guidetolerance="10"
     inkscape:pageopacity="0"
     inkscape:pageshadow="2"
     inkscape:window-width="1366"
     inkscape:window-height="742"
     id="namedview4579"
     showgrid="false"
     inkscape:zoom="1.0507812"
     inkscape:cx="92.729"
     inkscape:cy="251.032"
     inkscape:window-x="0"
     inkscape:window-y="26"
     inkscape:window-maximized="1"
     inkscape:current-layer="Layer_1" /><path
     d="m 133.008,333.072 c 27.33,14.465 45.95,43.19 45.95,76.263 0,47.625 -38.605,86.229 -86.229,86.229 -47.623,0 -86.229,-38.604 -86.229,-86.229 0,-33.072 18.619,-61.796 45.947,-76.26 l 0.003,0.005 V 46.778 C 52.45,24.533 70.485,6.5 92.729,6.5 v 0 c 22.246,0 40.278,18.033 40.278,40.278 V 333.08"
     id="path4562"
     inkscape:connector-curvature="0"
     style="fill:#ffffff;stroke:none;stroke-opacity:1;fill-opacity:0.26865676" /><path
     d="m 92.729,350.249 c 34.604,4.177 52.5,51.283 54,68.449 5.525,63.234 -32,76.866 -54,76.866 C 45.106,495.564 6.5,456.96 6.5,409.335 6.499,376.263 25.118,347.539 52.447,333.075 v 0 L 52.45,46.778 c 0,-22.245 -1.157,-35.421 21.087,-35.421 v 0 c 22.246,0 21.086,13.176 21.086,35.421 V 333.08"
     id="path4564"
     inkscape:connector-curvature="0"
     style="fill:#ffffff;fill-opacity:0" /><path
     d="m 133.008,333.072 c 27.33,14.465 45.95,43.19 45.95,76.263 0,47.625 -38.605,86.229 -86.229,86.229 -47.623,0 -86.229,-38.604 -86.229,-86.229 0,-33.072 18.619,-61.796 45.947,-76.26 l 0.003,0.005 V 46.778 C 52.45,24.533 70.485,6.5 92.729,6.5 v 0 c 22.246,0 40.278,18.033 40.278,40.278 V 333.08"
     stroke-miterlimit="10"
     id="path4566"
     inkscape:connector-curvature="0"
     style="fill:none;stroke:#ffffff;stroke-width:13;stroke-linecap:round;stroke-linejoin:round;stroke-miterlimit:10;fill-opacity:0;stroke-opacity:1" /><line
     stroke-miterlimit="10"
     x1="52.449993"
     x2="76.889"
     y1="121.032"
     y2="121.032"
     id="line4568"
     style="fill:none;stroke:#ffffff;stroke-width:13;stroke-linecap:round;stroke-linejoin:round;stroke-miterlimit:10;stroke-opacity:1" /><line
     stroke-miterlimit="10"
     x1="52.449993"
     x2="76.889"
     y1="155.532"
     y2="155.532"
     id="line4570"
     style="fill:none;stroke:#ffffff;stroke-width:13;stroke-linecap:round;stroke-linejoin:round;stroke-miterlimit:10;stroke-opacity:1" /><line
     stroke-miterlimit="10"
     x1="52.449993"
     x2="76.889"
     y1="190.032"
     y2="190.032"
     id="line4572"
     style="fill:none;stroke:#ffffff;stroke-width:13;stroke-linecap:round;stroke-linejoin:round;stroke-miterlimit:10;stroke-opacity:1" /><line
     stroke-miterlimit="10"
     x1="52.449993"
     x2="76.889"
     y1="224.532"
     y2="224.532"
     id="line4574"
     style="fill:none;stroke:#ffffff;stroke-width:13;stroke-linecap:round;stroke-linejoin:round;stroke-miterlimit:10;stroke-opacity:1" /><line
     stroke-miterlimit="10"
     x1="52.449993"
     x2="76.889"
     y1="259.03201"
     y2="259.03201"
     id="line4576"
     style="fill:none;stroke:#ffffff;stroke-width:13;stroke-linecap:round;stroke-linejoin:round;stroke-miterlimit:10;stroke-opacity:1" /></svg>